<mxfile host="app.diagrams.net" agent="Mozilla/5.0 (X11; Linux x86_64) AppleWebKit/537.36 (KHTML, like Gecko) Chrome/138.0.0.0 Safari/537.36" version="28.0.0">
  <diagram name="Page-1" id="Lg1kwCfuL5cvLR_RBk9q">
    <mxGraphModel dx="1307" dy="270" grid="1" gridSize="10" guides="1" tooltips="1" connect="1" arrows="1" fold="1" page="1" pageScale="1" pageWidth="827" pageHeight="1169" math="0" shadow="0">
      <root>
        <mxCell id="0" />
        <mxCell id="1" parent="0" />
        <mxCell id="DvQpfdr60y6PGFDpLSzt-12" value="" style="endArrow=none;dashed=1;html=1;dashPattern=1 3;strokeWidth=2;rounded=0;fillColor=#f5f5f5;strokeColor=#666666;fontFamily=Libertinus Serif;" parent="1" edge="1">
          <mxGeometry width="50" height="50" relative="1" as="geometry">
            <mxPoint x="320" y="610" as="sourcePoint" />
            <mxPoint x="320" y="80" as="targetPoint" />
          </mxGeometry>
        </mxCell>
        <mxCell id="DvQpfdr60y6PGFDpLSzt-14" value="" style="endArrow=none;dashed=1;html=1;dashPattern=1 3;strokeWidth=2;rounded=0;fillColor=#f5f5f5;strokeColor=#666666;fontFamily=Libertinus Serif;" parent="1" edge="1">
          <mxGeometry width="50" height="50" relative="1" as="geometry">
            <mxPoint x="660" y="610" as="sourcePoint" />
            <mxPoint x="660" y="80" as="targetPoint" />
          </mxGeometry>
        </mxCell>
        <mxCell id="DvQpfdr60y6PGFDpLSzt-17" value="" style="endArrow=none;dashed=1;html=1;dashPattern=1 3;strokeWidth=2;rounded=0;fillColor=#f5f5f5;strokeColor=#666666;fontFamily=Libertinus Serif;" parent="1" edge="1">
          <mxGeometry width="50" height="50" relative="1" as="geometry">
            <mxPoint x="980" y="610" as="sourcePoint" />
            <mxPoint x="980" y="80" as="targetPoint" />
          </mxGeometry>
        </mxCell>
        <mxCell id="9U03THOQqvrWw87KAxrK-56" style="edgeStyle=orthogonalEdgeStyle;rounded=0;orthogonalLoop=1;jettySize=auto;html=1;exitX=0.5;exitY=1;exitDx=0;exitDy=0;entryX=0.5;entryY=1;entryDx=0;entryDy=0;fontFamily=Libertinus Serif;" parent="1" source="DvQpfdr60y6PGFDpLSzt-18" target="sC1AejF_91SxmGcBgo1l-1" edge="1">
          <mxGeometry relative="1" as="geometry">
            <Array as="points">
              <mxPoint x="1060" y="590" />
              <mxPoint x="-220" y="590" />
            </Array>
            <mxPoint x="1060" y="330" as="sourcePoint" />
          </mxGeometry>
        </mxCell>
        <mxCell id="9U03THOQqvrWw87KAxrK-57" value="Besoin de réevaluer / modifer la propoition" style="edgeLabel;html=1;align=center;verticalAlign=middle;resizable=0;points=[];fontFamily=Libertinus Serif;" parent="9U03THOQqvrWw87KAxrK-56" vertex="1" connectable="0">
          <mxGeometry x="-0.673" relative="1" as="geometry">
            <mxPoint x="-86" as="offset" />
          </mxGeometry>
        </mxCell>
        <mxCell id="DvQpfdr60y6PGFDpLSzt-1" value="" style="endArrow=none;dashed=1;html=1;dashPattern=1 3;strokeWidth=2;rounded=0;fillColor=#f5f5f5;strokeColor=#666666;fontFamily=Libertinus Serif;" parent="1" edge="1">
          <mxGeometry width="50" height="50" relative="1" as="geometry">
            <mxPoint y="620" as="sourcePoint" />
            <mxPoint y="80" as="targetPoint" />
          </mxGeometry>
        </mxCell>
        <mxCell id="sC1AejF_91SxmGcBgo1l-19" style="edgeStyle=orthogonalEdgeStyle;rounded=0;orthogonalLoop=1;jettySize=auto;html=1;exitX=1;exitY=0.5;exitDx=0;exitDy=0;entryX=0;entryY=0.5;entryDx=0;entryDy=0;fontFamily=Libertinus Serif;" parent="1" source="sC1AejF_91SxmGcBgo1l-1" target="sC1AejF_91SxmGcBgo1l-2" edge="1">
          <mxGeometry relative="1" as="geometry" />
        </mxCell>
        <mxCell id="sC1AejF_91SxmGcBgo1l-1" value="Proposition d&#39;amélioration ou de projet" style="ellipse;whiteSpace=wrap;html=1;aspect=fixed;fillColor=#d5e8d4;strokeColor=#82b366;fontFamily=Libertinus Serif;" parent="1" vertex="1">
          <mxGeometry x="-280" y="240" width="120" height="120" as="geometry" />
        </mxCell>
        <mxCell id="sC1AejF_91SxmGcBgo1l-20" style="edgeStyle=orthogonalEdgeStyle;rounded=0;orthogonalLoop=1;jettySize=auto;html=1;exitX=1;exitY=0.5;exitDx=0;exitDy=0;entryX=0;entryY=0.5;entryDx=0;entryDy=0;fontFamily=Libertinus Serif;" parent="1" source="sC1AejF_91SxmGcBgo1l-2" target="sC1AejF_91SxmGcBgo1l-7" edge="1">
          <mxGeometry relative="1" as="geometry">
            <mxPoint x="40" y="300" as="targetPoint" />
          </mxGeometry>
        </mxCell>
        <mxCell id="sC1AejF_91SxmGcBgo1l-2" value="Expliciter :&lt;br&gt;- synthèse&lt;div&gt;- roles impactés&lt;/div&gt;&lt;div&gt;- delta avec/sans&lt;/div&gt;&lt;div&gt;- impact une fois implémenté&lt;/div&gt;&lt;div&gt;- solliciter des avis&lt;/div&gt;" style="rounded=1;whiteSpace=wrap;html=1;fillColor=#e1d5e7;strokeColor=#9673a6;fontFamily=Libertinus Serif;" parent="1" vertex="1">
          <mxGeometry x="-140" y="240" width="120" height="120" as="geometry" />
        </mxCell>
        <mxCell id="sC1AejF_91SxmGcBgo1l-4" value="Choix du type d&#39;amélioration" style="rounded=0;whiteSpace=wrap;html=1;fillColor=#f5f5f5;fontColor=#333333;strokeColor=#666666;fontFamily=Libertinus Serif;" parent="1" vertex="1">
          <mxGeometry x="340" y="80" width="300" height="40" as="geometry" />
        </mxCell>
        <mxCell id="sC1AejF_91SxmGcBgo1l-5" value="Formalisation de la proposition" style="rounded=0;whiteSpace=wrap;html=1;fillColor=#f5f5f5;fontColor=#333333;strokeColor=#666666;fontFamily=Libertinus Serif;" parent="1" vertex="1">
          <mxGeometry x="680" y="80" width="280" height="40" as="geometry" />
        </mxCell>
        <mxCell id="sC1AejF_91SxmGcBgo1l-28" style="edgeStyle=orthogonalEdgeStyle;rounded=0;orthogonalLoop=1;jettySize=auto;html=1;exitX=1;exitY=0.5;exitDx=0;exitDy=0;entryX=0;entryY=0.5;entryDx=0;entryDy=0;fontFamily=Libertinus Serif;fontStyle=0" parent="1" source="sC1AejF_91SxmGcBgo1l-7" target="DvQpfdr60y6PGFDpLSzt-2" edge="1">
          <mxGeometry relative="1" as="geometry">
            <mxPoint x="440" y="300" as="targetPoint" />
          </mxGeometry>
        </mxCell>
        <mxCell id="sC1AejF_91SxmGcBgo1l-29" value="&lt;span&gt;NON&lt;/span&gt;" style="edgeLabel;html=1;align=center;verticalAlign=middle;resizable=0;points=[];fontFamily=Libertinus Serif;fontStyle=0" parent="sC1AejF_91SxmGcBgo1l-28" vertex="1" connectable="0">
          <mxGeometry x="0.1581" y="1" relative="1" as="geometry">
            <mxPoint x="-13" y="1" as="offset" />
          </mxGeometry>
        </mxCell>
        <mxCell id="sC1AejF_91SxmGcBgo1l-30" style="edgeStyle=orthogonalEdgeStyle;rounded=0;orthogonalLoop=1;jettySize=auto;html=1;exitX=0.5;exitY=1;exitDx=0;exitDy=0;entryX=0.5;entryY=0;entryDx=0;entryDy=0;fontFamily=Libertinus Serif;" parent="1" source="sC1AejF_91SxmGcBgo1l-7" target="sC1AejF_91SxmGcBgo1l-10" edge="1">
          <mxGeometry relative="1" as="geometry" />
        </mxCell>
        <mxCell id="DvQpfdr60y6PGFDpLSzt-3" value="OUI" style="edgeLabel;html=1;align=center;verticalAlign=middle;resizable=0;points=[];fontFamily=Libertinus Serif;" parent="sC1AejF_91SxmGcBgo1l-30" vertex="1" connectable="0">
          <mxGeometry x="-0.3571" y="-1" relative="1" as="geometry">
            <mxPoint as="offset" />
          </mxGeometry>
        </mxCell>
        <mxCell id="sC1AejF_91SxmGcBgo1l-7" value="un des cercles support est il concerné" style="rhombus;whiteSpace=wrap;html=1;fillColor=#dae8fc;strokeColor=#6c8ebf;fontFamily=Libertinus Serif;" parent="1" vertex="1">
          <mxGeometry x="20" y="240" width="120" height="120" as="geometry" />
        </mxCell>
        <mxCell id="DvQpfdr60y6PGFDpLSzt-8" style="edgeStyle=orthogonalEdgeStyle;rounded=0;orthogonalLoop=1;jettySize=auto;html=1;exitX=0.5;exitY=1;exitDx=0;exitDy=0;entryX=0;entryY=0.5;entryDx=0;entryDy=0;fontFamily=Libertinus Serif;" parent="1" source="sC1AejF_91SxmGcBgo1l-10" target="9U03THOQqvrWw87KAxrK-13" edge="1">
          <mxGeometry relative="1" as="geometry" />
        </mxCell>
        <mxCell id="sC1AejF_91SxmGcBgo1l-10" value="Transmettre au CC concerné pour préavis" style="rounded=1;whiteSpace=wrap;html=1;fontFamily=Libertinus Serif;fillColor=#f5f5f5;fontColor=#333333;strokeColor=#666666;" parent="1" vertex="1">
          <mxGeometry x="20" y="380" width="120" height="60" as="geometry" />
        </mxCell>
        <mxCell id="sC1AejF_91SxmGcBgo1l-24" value="Formuler - evaluation rapide&lt;div&gt;(max 30min sur qq jours)&lt;/div&gt;" style="rounded=0;whiteSpace=wrap;html=1;fillColor=#f5f5f5;fontColor=#333333;strokeColor=#666666;fontFamily=Libertinus Serif;" parent="1" vertex="1">
          <mxGeometry x="-280" y="80" width="260" height="40" as="geometry" />
        </mxCell>
        <mxCell id="sC1AejF_91SxmGcBgo1l-25" value="Filtrage transversal et métier, affinage" style="rounded=0;whiteSpace=wrap;html=1;fillColor=#f5f5f5;fontColor=#333333;strokeColor=#666666;fontFamily=Libertinus Serif;" parent="1" vertex="1">
          <mxGeometry x="40" y="80" width="260" height="40" as="geometry" />
        </mxCell>
        <mxCell id="9U03THOQqvrWw87KAxrK-17" style="edgeStyle=orthogonalEdgeStyle;rounded=0;orthogonalLoop=1;jettySize=auto;html=1;entryX=0;entryY=0.5;entryDx=0;entryDy=0;fontFamily=Libertinus Serif;" parent="1" source="9U03THOQqvrWw87KAxrK-13" edge="1">
          <mxGeometry relative="1" as="geometry">
            <mxPoint x="340" y="300" as="targetPoint" />
            <Array as="points">
              <mxPoint x="330" y="520" />
              <mxPoint x="330" y="300" />
            </Array>
          </mxGeometry>
        </mxCell>
        <mxCell id="9U03THOQqvrWw87KAxrK-18" value="&lt;span&gt;OK&lt;/span&gt;" style="edgeLabel;html=1;align=center;verticalAlign=middle;resizable=0;points=[];fontFamily=Libertinus Serif;fontStyle=0" parent="9U03THOQqvrWw87KAxrK-17" vertex="1" connectable="0">
          <mxGeometry x="-0.7817" y="1" relative="1" as="geometry">
            <mxPoint x="-19" y="1" as="offset" />
          </mxGeometry>
        </mxCell>
        <mxCell id="DvQpfdr60y6PGFDpLSzt-10" style="edgeStyle=orthogonalEdgeStyle;rounded=0;orthogonalLoop=1;jettySize=auto;html=1;exitX=0.5;exitY=1;exitDx=0;exitDy=0;entryX=0.5;entryY=1;entryDx=0;entryDy=0;fontFamily=Libertinus Serif;" parent="1" source="9U03THOQqvrWw87KAxrK-13" target="sC1AejF_91SxmGcBgo1l-1" edge="1">
          <mxGeometry relative="1" as="geometry">
            <Array as="points">
              <mxPoint x="240" y="590" />
              <mxPoint x="-220" y="590" />
            </Array>
          </mxGeometry>
        </mxCell>
        <mxCell id="DvQpfdr60y6PGFDpLSzt-11" value="Besoin d&#39;affiner la proposition" style="edgeLabel;html=1;align=center;verticalAlign=middle;resizable=0;points=[];fontFamily=Libertinus Serif;" parent="DvQpfdr60y6PGFDpLSzt-10" vertex="1" connectable="0">
          <mxGeometry x="-0.7912" y="-4" relative="1" as="geometry">
            <mxPoint x="-25" y="4" as="offset" />
          </mxGeometry>
        </mxCell>
        <mxCell id="9U03THOQqvrWw87KAxrK-13" value="analyse des retours" style="rhombus;whiteSpace=wrap;html=1;fillColor=#dae8fc;strokeColor=#6c8ebf;fontFamily=Libertinus Serif;" parent="1" vertex="1">
          <mxGeometry x="180" y="460" width="120" height="120" as="geometry" />
        </mxCell>
        <mxCell id="9U03THOQqvrWw87KAxrK-53" style="edgeStyle=orthogonalEdgeStyle;rounded=0;orthogonalLoop=1;jettySize=auto;html=1;exitX=1;exitY=0.5;exitDx=0;exitDy=0;entryX=0;entryY=0.5;entryDx=0;entryDy=0;fontFamily=Libertinus Serif;" parent="1" source="9U03THOQqvrWw87KAxrK-30" target="9U03THOQqvrWw87KAxrK-51" edge="1">
          <mxGeometry relative="1" as="geometry" />
        </mxCell>
        <mxCell id="9U03THOQqvrWw87KAxrK-30" value="" style="rounded=1;whiteSpace=wrap;html=1;fillColor=#e1d5e7;strokeColor=#9673a6;glass=0;shadow=0;imageAspect=1;arcSize=4;fontFamily=Libertinus Serif;" parent="1" vertex="1">
          <mxGeometry x="340" y="150" width="300" height="300" as="geometry" />
        </mxCell>
        <mxCell id="9U03THOQqvrWw87KAxrK-33" value="" style="endArrow=classic;html=1;rounded=0;endFill=1;fontFamily=Libertinus Serif;" parent="1" edge="1">
          <mxGeometry width="50" height="50" relative="1" as="geometry">
            <mxPoint x="390" y="320" as="sourcePoint" />
            <mxPoint x="630" y="320" as="targetPoint" />
          </mxGeometry>
        </mxCell>
        <mxCell id="9U03THOQqvrWw87KAxrK-34" value="" style="endArrow=none;html=1;rounded=0;endFill=1;startArrow=classic;startFill=1;fontFamily=Libertinus Serif;" parent="1" edge="1">
          <mxGeometry width="50" height="50" relative="1" as="geometry">
            <mxPoint x="510" y="200" as="sourcePoint" />
            <mxPoint x="510" y="440" as="targetPoint" />
          </mxGeometry>
        </mxCell>
        <mxCell id="9U03THOQqvrWw87KAxrK-35" value="Court, peut être porté individuellement" style="rounded=1;whiteSpace=wrap;html=1;fillColor=#f5f5f5;fontColor=#333333;strokeColor=#666666;fontSize=11;fontFamily=Libertinus Serif;" parent="1" vertex="1">
          <mxGeometry x="390" y="160" width="110" height="30" as="geometry" />
        </mxCell>
        <mxCell id="9U03THOQqvrWw87KAxrK-36" value="&lt;b&gt;Projet :&lt;/b&gt;&lt;br&gt;resources à&lt;div&gt;débloquer : Consultation du Codir&lt;/div&gt;" style="rounded=1;whiteSpace=wrap;html=1;fillColor=#f8cecc;strokeColor=#b85450;fontFamily=Libertinus Serif;" parent="1" vertex="1">
          <mxGeometry x="520" y="200" width="110" height="110" as="geometry" />
        </mxCell>
        <mxCell id="9U03THOQqvrWw87KAxrK-37" value="&lt;b&gt;Projet :&lt;/b&gt;&lt;br&gt;A répartir dans le % des rôles impliqués" style="rounded=1;whiteSpace=wrap;html=1;fillColor=#d5e8d4;strokeColor=#82b366;fontFamily=Libertinus Serif;" parent="1" vertex="1">
          <mxGeometry x="520" y="330" width="110" height="110" as="geometry" />
        </mxCell>
        <mxCell id="9U03THOQqvrWw87KAxrK-38" value="Long, nécessite un système de gestion" style="rounded=1;whiteSpace=wrap;html=1;fillColor=#f5f5f5;fontColor=#333333;strokeColor=#666666;fontSize=11;fontFamily=Libertinus Serif;" parent="1" vertex="1">
          <mxGeometry x="520" y="160" width="110" height="30" as="geometry" />
        </mxCell>
        <mxCell id="9U03THOQqvrWw87KAxrK-39" value="Besoins RH ou Financiers suppl." style="rounded=1;whiteSpace=wrap;html=1;rotation=-90;fontSize=11;fillColor=#f5f5f5;fontColor=#333333;strokeColor=#666666;fontFamily=Libertinus Serif;" parent="1" vertex="1">
          <mxGeometry x="315" y="245" width="100" height="30" as="geometry" />
        </mxCell>
        <mxCell id="9U03THOQqvrWw87KAxrK-40" value="Peut être compris dans les rôles" style="rounded=1;whiteSpace=wrap;html=1;rotation=-90;fillColor=#f5f5f5;fontColor=#333333;strokeColor=#666666;fontFamily=Libertinus Serif;" parent="1" vertex="1">
          <mxGeometry x="310" y="370" width="110" height="30" as="geometry" />
        </mxCell>
        <mxCell id="9U03THOQqvrWw87KAxrK-41" value="&lt;b&gt;Amélioration :&lt;/b&gt;&lt;br&gt;resources à débloquer : Consultation du cercle ou Codir selon l&#39;ampleur" style="rounded=1;whiteSpace=wrap;html=1;fillColor=#f8cecc;strokeColor=#b85450;fontFamily=Libertinus Serif;" parent="1" vertex="1">
          <mxGeometry x="390" y="200" width="110" height="110" as="geometry" />
        </mxCell>
        <mxCell id="9U03THOQqvrWw87KAxrK-42" value="&lt;b&gt;Amélioration :&lt;/b&gt;&lt;div&gt;A répartir dans le % des rôles impliqués&lt;/div&gt;" style="rounded=1;whiteSpace=wrap;html=1;fillColor=#d5e8d4;strokeColor=#82b366;fontFamily=Libertinus Serif;" parent="1" vertex="1">
          <mxGeometry x="390" y="330" width="110" height="110" as="geometry" />
        </mxCell>
        <mxCell id="9U03THOQqvrWw87KAxrK-43" value="Proposer au cercle" style="rounded=1;whiteSpace=wrap;html=1;fontFamily=Libertinus Serif;" parent="1" vertex="1">
          <mxGeometry x="840" y="280" width="120" height="40" as="geometry" />
        </mxCell>
        <mxCell id="9U03THOQqvrWw87KAxrK-66" style="edgeStyle=orthogonalEdgeStyle;rounded=0;orthogonalLoop=1;jettySize=auto;html=1;exitX=1;exitY=0.5;exitDx=0;exitDy=0;entryX=0;entryY=0.5;entryDx=0;entryDy=0;fontFamily=Libertinus Serif;" parent="1" source="9U03THOQqvrWw87KAxrK-44" edge="1">
          <mxGeometry relative="1" as="geometry">
            <mxPoint x="1000" y="300" as="targetPoint" />
            <Array as="points">
              <mxPoint x="970" y="425" />
              <mxPoint x="970" y="300" />
            </Array>
          </mxGeometry>
        </mxCell>
        <mxCell id="9U03THOQqvrWw87KAxrK-44" value="Proposer l&#39;amélioration aux rôles métiers concernés." style="rounded=1;whiteSpace=wrap;html=1;fontFamily=Libertinus Serif;" parent="1" vertex="1">
          <mxGeometry x="770" y="400" width="190" height="50" as="geometry" />
        </mxCell>
        <mxCell id="9U03THOQqvrWw87KAxrK-47" style="edgeStyle=orthogonalEdgeStyle;rounded=0;orthogonalLoop=1;jettySize=auto;html=1;exitX=0.5;exitY=1;exitDx=0;exitDy=0;entryX=0;entryY=0.5;entryDx=0;entryDy=0;fontFamily=Libertinus Serif;" parent="1" source="9U03THOQqvrWw87KAxrK-51" target="9U03THOQqvrWw87KAxrK-44" edge="1">
          <mxGeometry relative="1" as="geometry">
            <mxPoint x="1370" y="460" as="targetPoint" />
          </mxGeometry>
        </mxCell>
        <mxCell id="9U03THOQqvrWw87KAxrK-48" value="FONCTION MÉTIER" style="edgeLabel;html=1;align=center;verticalAlign=middle;resizable=0;points=[];fontFamily=Libertinus Serif;" parent="9U03THOQqvrWw87KAxrK-47" vertex="1" connectable="0">
          <mxGeometry x="-0.1894" y="3" relative="1" as="geometry">
            <mxPoint x="-3" y="-13" as="offset" />
          </mxGeometry>
        </mxCell>
        <mxCell id="9U03THOQqvrWw87KAxrK-49" style="edgeStyle=orthogonalEdgeStyle;rounded=0;orthogonalLoop=1;jettySize=auto;html=1;exitX=0.5;exitY=0;exitDx=0;exitDy=0;entryX=0;entryY=0.5;entryDx=0;entryDy=0;fontFamily=Libertinus Serif;" parent="1" source="9U03THOQqvrWw87KAxrK-51" target="9U03THOQqvrWw87KAxrK-52" edge="1">
          <mxGeometry relative="1" as="geometry" />
        </mxCell>
        <mxCell id="9U03THOQqvrWw87KAxrK-50" value="AUTRES CERCLES" style="edgeLabel;html=1;align=center;verticalAlign=middle;resizable=0;points=[];fontFamily=Libertinus Serif;" parent="9U03THOQqvrWw87KAxrK-49" vertex="1" connectable="0">
          <mxGeometry x="-0.2367" y="-2" relative="1" as="geometry">
            <mxPoint x="-2" y="18" as="offset" />
          </mxGeometry>
        </mxCell>
        <mxCell id="9U03THOQqvrWw87KAxrK-51" value="qui est concerné" style="rhombus;whiteSpace=wrap;html=1;fillColor=#dae8fc;strokeColor=#6c8ebf;fontFamily=Libertinus Serif;" parent="1" vertex="1">
          <mxGeometry x="680" y="240" width="120" height="120" as="geometry" />
        </mxCell>
        <mxCell id="9U03THOQqvrWw87KAxrK-64" style="edgeStyle=orthogonalEdgeStyle;rounded=0;orthogonalLoop=1;jettySize=auto;html=1;exitX=1;exitY=0.5;exitDx=0;exitDy=0;entryX=0;entryY=0.5;entryDx=0;entryDy=0;fontFamily=Libertinus Serif;" parent="1" source="9U03THOQqvrWw87KAxrK-52" edge="1">
          <mxGeometry relative="1" as="geometry">
            <mxPoint x="1000" y="300" as="targetPoint" />
            <Array as="points">
              <mxPoint x="970" y="170" />
              <mxPoint x="970" y="300" />
            </Array>
          </mxGeometry>
        </mxCell>
        <mxCell id="9U03THOQqvrWw87KAxrK-52" value="Proposer aux cercles concernés ou a tous selon situation" style="rounded=1;whiteSpace=wrap;html=1;fontFamily=Libertinus Serif;" parent="1" vertex="1">
          <mxGeometry x="760" y="150" width="200" height="40" as="geometry" />
        </mxCell>
        <mxCell id="9U03THOQqvrWw87KAxrK-58" value="Mise en attente le temps que des ressources puissent être débloquées" style="ellipse;whiteSpace=wrap;html=1;aspect=fixed;fillColor=#f8cecc;strokeColor=#b85450;fontFamily=Libertinus Serif;" parent="1" vertex="1">
          <mxGeometry x="1150" y="280" width="120" height="120" as="geometry" />
        </mxCell>
        <mxCell id="9U03THOQqvrWw87KAxrK-59" value="Tout est ok, mise en place de l&#39;amélioration" style="ellipse;whiteSpace=wrap;html=1;aspect=fixed;fillColor=#d5e8d4;strokeColor=#82b366;fontFamily=Libertinus Serif;" parent="1" vertex="1">
          <mxGeometry x="1150" y="410" width="120" height="120" as="geometry" />
        </mxCell>
        <mxCell id="9U03THOQqvrWw87KAxrK-60" value="Arrèt : l&#39;amélioration s&#39;avère non nécessaire ou inimplémentable" style="ellipse;whiteSpace=wrap;html=1;aspect=fixed;fillColor=#fff2cc;strokeColor=#d6b656;fontFamily=Libertinus Serif;" parent="1" vertex="1">
          <mxGeometry x="1150" y="150" width="120" height="120" as="geometry" />
        </mxCell>
        <mxCell id="DvQpfdr60y6PGFDpLSzt-5" style="edgeStyle=orthogonalEdgeStyle;rounded=0;orthogonalLoop=1;jettySize=auto;html=1;exitX=0.5;exitY=1;exitDx=0;exitDy=0;entryX=0.5;entryY=0;entryDx=0;entryDy=0;fontFamily=Libertinus Serif;" parent="1" source="DvQpfdr60y6PGFDpLSzt-2" target="DvQpfdr60y6PGFDpLSzt-4" edge="1">
          <mxGeometry relative="1" as="geometry" />
        </mxCell>
        <mxCell id="DvQpfdr60y6PGFDpLSzt-6" value="OUI" style="edgeLabel;html=1;align=center;verticalAlign=middle;resizable=0;points=[];fontFamily=Libertinus Serif;" parent="DvQpfdr60y6PGFDpLSzt-5" vertex="1" connectable="0">
          <mxGeometry x="-0.2429" y="-4" relative="1" as="geometry">
            <mxPoint as="offset" />
          </mxGeometry>
        </mxCell>
        <mxCell id="DvQpfdr60y6PGFDpLSzt-9" style="edgeStyle=orthogonalEdgeStyle;rounded=0;orthogonalLoop=1;jettySize=auto;html=1;exitX=1;exitY=0.5;exitDx=0;exitDy=0;entryX=0;entryY=0.5;entryDx=0;entryDy=0;fontFamily=Libertinus Serif;" parent="1" source="DvQpfdr60y6PGFDpLSzt-2" edge="1">
          <mxGeometry relative="1" as="geometry">
            <mxPoint x="340" y="300" as="targetPoint" />
          </mxGeometry>
        </mxCell>
        <mxCell id="DvQpfdr60y6PGFDpLSzt-13" value="NON" style="edgeLabel;html=1;align=center;verticalAlign=middle;resizable=0;points=[];fontFamily=Libertinus Serif;" parent="DvQpfdr60y6PGFDpLSzt-9" vertex="1" connectable="0">
          <mxGeometry x="-0.5571" y="3" relative="1" as="geometry">
            <mxPoint x="1" y="3" as="offset" />
          </mxGeometry>
        </mxCell>
        <mxCell id="DvQpfdr60y6PGFDpLSzt-2" value="des rôles aux compétences métier sont ils concernés" style="rhombus;whiteSpace=wrap;html=1;fillColor=#dae8fc;strokeColor=#6c8ebf;fontFamily=Libertinus Serif;" parent="1" vertex="1">
          <mxGeometry x="180" y="240" width="120" height="120" as="geometry" />
        </mxCell>
        <mxCell id="DvQpfdr60y6PGFDpLSzt-7" style="edgeStyle=orthogonalEdgeStyle;rounded=0;orthogonalLoop=1;jettySize=auto;html=1;exitX=0.5;exitY=1;exitDx=0;exitDy=0;entryX=0.5;entryY=0;entryDx=0;entryDy=0;fontFamily=Libertinus Serif;" parent="1" source="DvQpfdr60y6PGFDpLSzt-4" target="9U03THOQqvrWw87KAxrK-13" edge="1">
          <mxGeometry relative="1" as="geometry" />
        </mxCell>
        <mxCell id="DvQpfdr60y6PGFDpLSzt-4" value="Transmettre au rôles en question pour préavis" style="rounded=1;whiteSpace=wrap;html=1;fontFamily=Libertinus Serif;fillColor=#f5f5f5;fontColor=#333333;strokeColor=#666666;" parent="1" vertex="1">
          <mxGeometry x="180" y="380" width="120" height="60" as="geometry" />
        </mxCell>
        <mxCell id="9U03THOQqvrWw87KAxrK-45" style="edgeStyle=orthogonalEdgeStyle;rounded=0;orthogonalLoop=1;jettySize=auto;html=1;exitX=1;exitY=0.5;exitDx=0;exitDy=0;entryX=0;entryY=0.5;entryDx=0;entryDy=0;fontFamily=Libertinus Serif;" parent="1" source="9U03THOQqvrWw87KAxrK-51" target="9U03THOQqvrWw87KAxrK-43" edge="1">
          <mxGeometry relative="1" as="geometry">
            <mxPoint x="1380" y="130" as="targetPoint" />
          </mxGeometry>
        </mxCell>
        <mxCell id="9U03THOQqvrWw87KAxrK-46" value="CERCLE" style="edgeLabel;html=1;align=center;verticalAlign=middle;resizable=0;points=[];fontFamily=Libertinus Serif;" parent="9U03THOQqvrWw87KAxrK-45" vertex="1" connectable="0">
          <mxGeometry x="-0.1822" y="2" relative="1" as="geometry">
            <mxPoint x="-7" y="2" as="offset" />
          </mxGeometry>
        </mxCell>
        <mxCell id="DvQpfdr60y6PGFDpLSzt-16" value="" style="edgeStyle=orthogonalEdgeStyle;rounded=0;orthogonalLoop=1;jettySize=auto;html=1;exitX=1;exitY=0.5;exitDx=0;exitDy=0;fontFamily=Libertinus Serif;entryX=0;entryY=0.5;entryDx=0;entryDy=0;" parent="1" source="9U03THOQqvrWw87KAxrK-43" target="DvQpfdr60y6PGFDpLSzt-18" edge="1">
          <mxGeometry relative="1" as="geometry">
            <mxPoint x="1000" y="300" as="targetPoint" />
            <mxPoint x="960" y="300" as="sourcePoint" />
          </mxGeometry>
        </mxCell>
        <mxCell id="DvQpfdr60y6PGFDpLSzt-20" style="edgeStyle=orthogonalEdgeStyle;rounded=0;orthogonalLoop=1;jettySize=auto;html=1;exitX=1;exitY=0.5;exitDx=0;exitDy=0;entryX=0;entryY=0.5;entryDx=0;entryDy=0;fontFamily=Libertinus Serif;" parent="1" source="DvQpfdr60y6PGFDpLSzt-18" target="9U03THOQqvrWw87KAxrK-58" edge="1">
          <mxGeometry relative="1" as="geometry">
            <Array as="points">
              <mxPoint x="1130" y="300" />
              <mxPoint x="1130" y="340" />
            </Array>
          </mxGeometry>
        </mxCell>
        <mxCell id="DvQpfdr60y6PGFDpLSzt-21" style="edgeStyle=orthogonalEdgeStyle;rounded=0;orthogonalLoop=1;jettySize=auto;html=1;exitX=1;exitY=0.5;exitDx=0;exitDy=0;entryX=0;entryY=0.5;entryDx=0;entryDy=0;fontFamily=Libertinus Serif;" parent="1" source="DvQpfdr60y6PGFDpLSzt-18" target="9U03THOQqvrWw87KAxrK-59" edge="1">
          <mxGeometry relative="1" as="geometry">
            <Array as="points">
              <mxPoint x="1130" y="300" />
              <mxPoint x="1130" y="470" />
            </Array>
          </mxGeometry>
        </mxCell>
        <mxCell id="DvQpfdr60y6PGFDpLSzt-22" style="edgeStyle=orthogonalEdgeStyle;rounded=0;orthogonalLoop=1;jettySize=auto;html=1;exitX=1;exitY=0.5;exitDx=0;exitDy=0;entryX=0;entryY=0.5;entryDx=0;entryDy=0;fontFamily=Libertinus Serif;" parent="1" source="DvQpfdr60y6PGFDpLSzt-18" target="9U03THOQqvrWw87KAxrK-60" edge="1">
          <mxGeometry relative="1" as="geometry">
            <Array as="points">
              <mxPoint x="1130" y="300" />
              <mxPoint x="1130" y="210" />
            </Array>
          </mxGeometry>
        </mxCell>
        <mxCell id="DvQpfdr60y6PGFDpLSzt-18" value="prise en compte des&lt;div&gt;retours généraux&lt;/div&gt;" style="rhombus;whiteSpace=wrap;html=1;fillColor=#dae8fc;strokeColor=#6c8ebf;fontFamily=Libertinus Serif;" parent="1" vertex="1">
          <mxGeometry x="1000" y="240" width="120" height="120" as="geometry" />
        </mxCell>
        <mxCell id="DvQpfdr60y6PGFDpLSzt-23" value="Mise en place" style="rounded=0;whiteSpace=wrap;html=1;fillColor=#f5f5f5;fontColor=#333333;strokeColor=#666666;fontFamily=Libertinus Serif;" parent="1" vertex="1">
          <mxGeometry x="1000" y="80" width="280" height="40" as="geometry" />
        </mxCell>
      </root>
    </mxGraphModel>
  </diagram>
</mxfile>
